<svg xmlns="http://www.w3.org/2000/svg" xmlns:xlink="http://www.w3.org/1999/xlink" width="213px" height="203px" version="1.1">
    <defs/>
    <g transform="translate(0.5,0.5)">
        <path
            d="M 211 101 C 211 86 189 74 159 68 C 161 61 163 53 165 47 C 169 24 167 8 159 3 C 156 2 154 1 151 1 C 139 1 123 14 106 35 C 89 14 73 1 61 1 C 58 1 56 2 54 3 C 41 11 43 37 53 68 C 23 74 1 86 1 101 C 1 116 23 128 53 134 C 51 141 49 149 47 155 C 43 178 45 194 54 199 C 56 200 58 201 61 201 C 73 201 89 188 106 167 C 123 188 139 201 151 201 C 154 201 156 200 159 199 C 167 194 169 178 165 155 C 163 149 161 141 159 134 C 189 128 211 116 211 101 Z M 151 7 C 153 7 154 7 156 8 C 162 12 163 26 159 45 C 158 52 156 59 154 67 C 145 66 136 64 126 64 C 121 55 115 47 110 40 C 126 19 141 7 151 7 Z M 132 117 C 129 122 126 128 123 133 C 118 133 112 133 106 133 C 100 133 94 133 89 133 C 86 128 83 122 80 117 C 77 112 75 106 72 101 C 75 96 77 90 80 85 C 83 80 86 74 89 69 C 94 69 100 69 106 69 C 112 69 118 69 123 69 C 126 74 129 80 132 85 C 135 90 137 96 140 101 C 137 106 135 112 132 117 Z M 143 108 C 146 115 149 122 152 130 C 145 131 138 132 130 132 C 132 128 134 124 137 120 C 139 116 141 112 143 108 Z M 119 139 C 115 146 110 152 106 158 C 102 152 97 146 93 139 C 97 139 102 139 106 139 C 110 139 115 139 119 139 Z M 82 132 C 74 132 67 131 60 130 C 63 122 66 115 69 108 C 71 112 73 116 75 120 C 78 124 80 128 82 132 Z M 69 95 C 66 87 63 79 60 72 C 67 71 74 70 82 70 C 80 74 78 78 75 82 C 73 86 71 90 69 95 Z M 93 63 C 97 56 102 50 106 44 C 110 50 115 56 119 63 C 115 63 110 63 106 63 C 102 63 97 63 93 63 Z M 137 82 C 134 78 132 74 130 70 C 138 70 145 71 152 72 C 149 80 146 87 143 94 C 141 90 139 86 137 82 Z M 56 8 C 58 7 59 7 61 7 C 71 7 86 19 102 40 C 97 47 91 55 86 64 C 76 64 67 66 58 67 C 48 36 48 13 56 8 Z M 6 101 C 6 90 25 80 55 73 C 58 82 62 92 66 101 C 62 110 58 120 55 128 C 25 122 6 111 6 101 Z M 61 195 C 59 195 58 195 56 194 C 50 190 49 176 53 157 C 54 150 56 143 58 135 C 67 137 76 138 86 138 C 91 147 97 155 102 162 C 86 183 71 195 61 195 Z M 159 157 C 163 176 162 190 156 194 C 154 195 153 195 151 195 C 141 195 126 183 110 162 C 115 155 121 147 126 138 C 136 138 145 136 154 135 C 156 143 158 150 159 157 Z M 157 128 C 154 120 150 110 146 101 C 150 92 154 82 157 73 C 187 80 206 91 206 101 C 206 111 187 122 157 128 Z"
            fill="#000000" stroke="none" pointer-events="none"/>
        <ellipse cx="106" cy="101" rx="11.525423728813559" ry="12.311870544302366" fill="#000000" stroke="none" pointer-events="none"/>
    </g>
</svg>
